<svg width="20" height="18" viewBox="0 0 20 18" fill="none" xmlns="http://www.w3.org/2000/svg">
<path d="M1.75 8C1.75 7.58579 1.41421 7.25 1 7.25C0.585786 7.25 0.25 7.58579 0.25 8H1.75ZM0.25 10C0.25 10.4142 0.585786 10.75 1 10.75C1.41421 10.75 1.75 10.4142 1.75 10H0.25ZM4.75 5C4.75 4.58579 4.41421 4.25 4 4.25C3.58579 4.25 3.25 4.58579 3.25 5H4.75ZM3.25 13C3.25 13.4142 3.58579 13.75 4 13.75C4.41421 13.75 4.75 13.4142 4.75 13H3.25ZM7.75 7C7.75 6.58579 7.41421 6.25 7 6.25C6.58579 6.25 6.25 6.58579 6.25 7H7.75ZM6.25 11C6.25 11.4142 6.58579 11.75 7 11.75C7.41421 11.75 7.75 11.4142 7.75 11H6.25ZM10.75 4C10.75 3.58579 10.4142 3.25 10 3.25C9.58579 3.25 9.25 3.58579 9.25 4H10.75ZM9.25 14C9.25 14.4142 9.58579 14.75 10 14.75C10.4142 14.75 10.75 14.4142 10.75 14H9.25ZM13.75 1C13.75 0.585786 13.4142 0.25 13 0.25C12.5858 0.25 12.25 0.585786 12.25 1H13.75ZM12.25 17C12.25 17.4142 12.5858 17.75 13 17.75C13.4142 17.75 13.75 17.4142 13.75 17H12.25ZM16.75 6C16.75 5.58579 16.4142 5.25 16 5.25C15.5858 5.25 15.25 5.58579 15.25 6H16.75ZM15.25 12C15.25 12.4142 15.5858 12.75 16 12.75C16.4142 12.75 16.75 12.4142 16.75 12H15.25ZM19.75 8C19.75 7.58579 19.4142 7.25 19 7.25C18.5858 7.25 18.25 7.58579 18.25 8H19.75ZM18.25 10C18.25 10.4142 18.5858 10.75 19 10.75C19.4142 10.75 19.75 10.4142 19.75 10H18.25ZM0.25 8V10H1.75V8H0.25ZM3.25 5V13H4.75V5H3.25ZM6.25 7V11H7.75V7H6.25ZM9.25 4V14H10.75V4H9.25ZM12.25 1V17H13.75V1H12.25ZM15.25 6V12H16.75V6H15.25ZM18.25 8V10H19.75V8H18.25Z" fill="#1E1E1E"/>
</svg>
